<svg xmlns="http://www.w3.org/2000/svg" viewBox="0 0 800 600" width="800" height="600">
  <rect width="800" height="600" fill="#f2efe6"/>

  <g stroke="#16140f" opacity="0.14" stroke-width="1" fill="none">
    <path d="M0 75 H800"/><path d="M0 150 H800"/><path d="M0 225 H800"/><path d="M0 300 H800"/><path d="M0 375 H800"/><path d="M0 450 H800"/><path d="M0 525 H800"/>
    <path d="M80 0 V600"/><path d="M160 0 V600"/><path d="M240 0 V600"/><path d="M320 0 V600"/><path d="M400 0 V600"/><path d="M480 0 V600"/><path d="M560 0 V600"/><path d="M640 0 V600"/><path d="M720 0 V600"/></g>
  <g stroke="#16140f" opacity="0.3" stroke-width="1.5" stroke-dasharray="5 6" fill="none"><circle cx="250" cy="220" r="118"/><circle cx="545" cy="195" r="100"/><circle cx="560" cy="415" r="122"/><circle cx="265" cy="430" r="96"/></g>
  <g opacity="0.9"><circle cx="183.5" cy="199.8" r="8.074293614632587" fill="#8b6ec4"/><circle cx="313.9" cy="161.9" r="5.695717334838452" fill="#8b6ec4"/><circle cx="199.3" cy="149.2" r="7.900339127704659" fill="#8b6ec4"/><circle cx="282.2" cy="169.1" r="6.9721622473896305" fill="#8b6ec4"/><circle cx="197.3" cy="187.5" r="6.675271988462318" fill="#8b6ec4"/><circle cx="257.7" cy="215.9" r="7.20376025219623" fill="#8b6ec4"/><circle cx="282.6" cy="140.7" r="9.09173393416765" fill="#8b6ec4"/><circle cx="194.3" cy="165.7" r="8.313840867399165" fill="#8b6ec4"/><circle cx="273.1" cy="271.9" r="8.626964093710745" fill="#8b6ec4"/><circle cx="176.5" cy="171.6" r="9.216378690542829" fill="#8b6ec4"/><circle cx="282.0" cy="156.6" r="7.621123791728692" fill="#8b6ec4"/><circle cx="307.4" cy="180.3" r="6.327252865222866" fill="#8b6ec4"/><circle cx="315.1" cy="200.9" r="7.812762261513976" fill="#8b6ec4"/><circle cx="310.5" cy="272.1" r="6.083103657040327" fill="#8b6ec4"/><circle cx="539.8" cy="186.2" r="6.8961697674338565" fill="#6a4f96"/><circle cx="528.6" cy="188.1" r="8.453012587015056" fill="#6a4f96"/><circle cx="539.2" cy="142.2" r="5.780520916115735" fill="#6a4f96"/><circle cx="564.8" cy="160.5" r="7.61404514411187" fill="#6a4f96"/><circle cx="592.7" cy="199.5" r="7.189225197624985" fill="#6a4f96"/><circle cx="550.1" cy="258.5" r="8.006098271583253" fill="#6a4f96"/><circle cx="536.5" cy="153.2" r="6.996891499262718" fill="#6a4f96"/><circle cx="561.2" cy="239.6" r="6.901218414959134" fill="#6a4f96"/><circle cx="488.2" cy="217.3" r="7.574672699940704" fill="#6a4f96"/><circle cx="599.3" cy="167.7" r="6.977710724565066" fill="#6a4f96"/><circle cx="561.2" cy="178.7" r="7.84165585150088" fill="#6a4f96"/><circle cx="495.3" cy="485.8" r="9.372999193087686" fill="#8b6ec4"/><circle cx="614.4" cy="352.2" r="8.957227708519078" fill="#8b6ec4"/><circle cx="655.5" cy="416.6" r="8.613656045456256" fill="#8b6ec4"/><circle cx="584.1" cy="424.9" r="6.335894346626426" fill="#8b6ec4"/><circle cx="518.4" cy="395.3" r="7.388249040529248" fill="#8b6ec4"/><circle cx="514.6" cy="446.9" r="9.149627687246365" fill="#8b6ec4"/><circle cx="488.5" cy="471.3" r="6.728157044028936" fill="#8b6ec4"/><circle cx="592.0" cy="480.0" r="7.952176572034218" fill="#8b6ec4"/><circle cx="546.0" cy="433.6" r="7.5310093173901596" fill="#8b6ec4"/><circle cx="606.6" cy="357.5" r="5.943339348045802" fill="#8b6ec4"/><circle cx="556.0" cy="466.2" r="5.803419590137628" fill="#8b6ec4"/><circle cx="578.6" cy="355.4" r="7.7635879527142215" fill="#8b6ec4"/><circle cx="551.8" cy="508.6" r="7.034652710675566" fill="#8b6ec4"/><circle cx="532.8" cy="489.7" r="7.40206146328806" fill="#8b6ec4"/><circle cx="599.4" cy="488.9" r="8.600751401437797" fill="#8b6ec4"/><circle cx="281.0" cy="495.9" r="8.081696511517137" fill="#6a4f96"/><circle cx="255.2" cy="494.4" r="7.85351276507299" fill="#6a4f96"/><circle cx="212.6" cy="397.8" r="7.2749109276453545" fill="#6a4f96"/><circle cx="232.3" cy="415.7" r="9.3487596529763" fill="#6a4f96"/><circle cx="236.8" cy="466.0" r="7.656785012295835" fill="#6a4f96"/><circle cx="301.4" cy="438.6" r="9.35317468822616" fill="#6a4f96"/><circle cx="312.5" cy="439.5" r="8.460741044469522" fill="#6a4f96"/><circle cx="220.3" cy="468.5" r="7.92834663504192" fill="#6a4f96"/><circle cx="230.7" cy="370.8" r="9.486833574244208" fill="#6a4f96"/><circle cx="214.4" cy="392.3" r="7.432344437545326" fill="#6a4f96"/></g>
</svg>
